<svg width="177" height="176" viewBox="0 0 177 176" fill="none" xmlns="http://www.w3.org/2000/svg">
<path d="M173.955 118.932H171.45C154.447 156.294 126.197 176.414 84.8741 175.591C53.9008 174.972 20.9821 155.984 6.43808 118.776H2.72342C3.21409 117.251 4.72475 117.238 5.60075 116.288C-0.973918 96.199 -0.735249 76.0976 6.89275 56.287C13.4408 39.2816 24.3394 25.5616 39.4674 15.307C69.7394 -5.21703 110.057 -4.69569 139.578 16.2336C167.967 36.363 185.534 75.3083 171.914 116.723C172.291 117.71 173.901 117.534 173.955 118.932ZM169.982 116.067C180.877 86.8843 174.421 46.4736 142.991 21.0777C111.958 -3.99968 67.7048 -4.47168 36.5314 19.5203C3.89808 44.635 -3.50059 85.7616 7.39942 115.45C9.67808 114.902 11.9514 113.962 14.2554 113.875C21.4034 113.606 26.3927 110.048 30.1247 104.272C30.3834 103.875 30.6927 103.504 30.9994 103.14C35.3474 97.9523 38.6701 91.895 43.8208 87.4083C47.4061 84.2843 50.1634 80.591 52.6194 76.6016C54.8754 72.9416 57.2821 69.3936 60.1741 66.195C60.8328 65.4656 61.1354 64.6443 61.3474 63.6656C62.7394 57.2376 66.2994 53.9723 72.8021 53.075C74.9768 52.775 77.1727 52.6256 79.3501 52.343C80.8861 52.1416 82.0941 51.3763 82.4181 49.7776C82.6901 48.4216 82.5247 46.4336 82.5247 46.4336C82.2594 46.3856 80.3821 46.2256 80.3634 45.915C80.0381 40.3163 78.9247 34.3416 80.7927 28.8563C82.1301 24.9296 85.5301 24.8216 89.0581 24.927C93.3381 25.0576 95.5261 26.7856 96.3074 30.9923C97.1941 35.763 96.5301 40.9376 96.1768 45.691C96.1434 46.1176 94.3074 46.3336 94.0488 46.383C94.0488 46.383 93.7207 48.5097 94.1407 49.975C94.6141 51.6296 95.9181 52.303 97.6181 52.4443C99.9007 52.6336 102.173 52.9536 104.447 53.2296C110.487 53.9643 113.61 57.871 115.074 63.3323C115.441 64.6936 116.01 65.7443 116.838 66.811C118.827 69.3696 120.881 71.9003 122.607 74.6336C125.774 79.6456 129.042 84.5123 133.639 88.395C135.894 90.2976 137.663 92.7136 139.398 95.1256C142.909 100.012 146.606 104.755 150.586 109.27C152.269 111.179 154.095 112.551 156.814 112.888C161.238 113.44 165.658 114.218 169.982 116.067ZM95.7408 173.723C134.294 170.878 161.531 142.406 168.857 118.618C166.691 118.362 164.478 118.282 162.355 117.807C158.77 117.004 154.567 117.43 151.754 114.95C139.958 104.556 127.855 94.4696 118.179 81.875C114.889 77.591 111.705 73.231 108.529 68.6576C106.859 70.0203 105.682 71.467 104.697 73.115C100.727 79.7536 99.8648 87.0696 101.167 94.4056C102.886 104.099 102.195 113.456 100.025 122.986C96.2341 139.615 95.3168 156.55 95.7408 173.723ZM68.4408 68.887C68.1634 68.927 67.9074 68.8816 67.8181 68.9843C67.3794 69.4843 66.9594 70.003 66.5807 70.551C58.9514 81.6603 50.5207 92.079 40.3621 101.016C37.1381 103.854 33.7514 106.551 30.8301 109.682C26.4794 114.342 21.3821 117.16 15.0114 117.712C12.8461 117.9 10.6994 118.284 8.54075 118.579C18.5221 147.787 48.5861 171.486 80.7434 173.466C81.1914 155.386 79.9461 137.476 75.8994 119.804C74.2954 112.807 73.2514 105.79 74.8861 98.5843C75.8181 94.4856 75.9727 90.2496 75.6794 86.039C75.2247 79.4883 73.2714 73.5536 68.4408 68.887Z" fill="#181C25"/>
</svg>
